<svg xmlns="http://www.w3.org/2000/svg" fill="none" viewBox="0 0 464 195">
  <g fill="#fff" clip-path="url(#a)">
    <path d="M431.2 31.8v53.8l31.3-22V9.7l-31.3 22Zm15.5-23.6V.5c0 4.3-6.9 7.7-15.7 7.7-8.8 0-15.7-3.4-15.7-7.7v7.7c0 4.3 7 7.7 15.7 7.7 9 .3 15.7-3.2 15.7-7.7Zm-75 121.5c-10.7-3.3-17-7.3-16.8-14.8.4-8.5 8-11.4 16.1-11 12 .2 17.3 10.8 17.3 10.8l16.5-10.9a39 39 0 0 0-32.7-18.6c-18.6-1.4-37.1 8.1-38.2 28.3-1 19.4 11.4 28.7 31.9 34.2 10.3 3 19.7 6.6 19.4 15.4-.3 10.6-9.5 11.7-15.8 11.7-12.2-.3-21.6-14.3-21.6-14.3L332 170.8c6.2 14.3 22 21.7 36 22.5 18.8 1 37.7-9.1 39-27.9 1.5-23-14.4-29.6-35.3-35.7ZM103.9 162c-5.9 7.4-14.6 11.7-27.1 11.7H61.7v-69.4h15A33 33 0 0 1 104 116a37.8 37.8 0 0 1 7.7 23c0 9-2.8 17.2-7.7 23Zm7-66a58.8 58.8 0 0 0-36.3-10H41.5v105.9h33.1a58 58 0 0 0 36.4-10c13-9.9 21-25.4 21-43 0-17.4-8-33-21-43Zm150.5 54.5 13.6-31.3 13.6 31.3h-27.2Zm6.4-64.2-45.5 105.9h21.3l10-23.4H296l10 23.4h21.3L282 86.2h-14.3ZM0 99.7V192h20.5V85.3L0 99.7Zm167.6 45.1H199v-18h-31.4v-22.5h43v-18h-63.4V192H212v-18h-44.4v-29.2Z"/>
  </g>
  <defs>
    <clipPath id="a">
      <path fill="#fff" d="M0 0h464v194H0z" transform="translate(0 .5)"/>
    </clipPath>
  </defs>
</svg>